<svg xmlns="http://www.w3.org/2000/svg" viewBox="0 0 512 512" id="twitch" width="100%" height="100%"><rect x="29.336" y="29.538" fill="#FFF" stroke="#000" stroke-miterlimit="10" width="452.521" height="452.521"></rect><rect x="47.824" y="47.185" stroke="#000" stroke-miterlimit="10" width="415.546" height="416.806"></rect><rect x="65.891" y="65.672" fill="#406181" width="379.412" height="380.672"></rect><path fill="#FFF" stroke="#000" stroke-width="4" stroke-miterlimit="10" d="M268.412 111.899v29.832l-.058-.426 54.202-.006s18.486-.843 18.069 18.905l.009 23.53s41.591-.845 56.301 41.17c0 0 15.13 30.25.011 96.638 0 0-7.138 45.799-40.749 61.77 0 0-23.529 5.043-40.756 5.467 0 0-5.041 17.229-11.344 17.229l-48.095.006v-.004h-48.095c-6.302 0-11.345-17.228-11.345-17.228-17.227-.421-40.756-5.462-40.756-5.462-33.614-15.967-40.756-61.765-40.756-61.765-15.126-66.387 0-96.639 0-96.639 14.706-42.017 56.296-41.176 56.296-41.176l.007-23.53c-.42-19.748 18.067-18.907 18.067-18.907h54.202v-29.832s-.42-12.185 11.975-12.185c0 0 12.815-1.244 12.815 12.613z"></path><path fill="#406181" stroke="#000" stroke-width="3" stroke-miterlimit="10" d="M243.202 159.79h-47.899s-10.924-1.261-11.765 13.025c0 0 0 10.084 7.143 10.084 0 0 13.866 3.361 22.689-3.782 0 0-2.102-11.345 4.201-13.025 0 0 9.664-5.041 25.631-6.302zM268.885 159.786l47.898.004s10.925-1.26 11.764 13.026c0 0-.001 10.085-7.144 10.084 0 0-13.867 3.36-22.689-3.784 0 0 2.104-11.344-4.199-13.025 0-.001-9.664-5.043-25.63-6.305z"></path><polygon points="217.752,406.009 219.252,387.941 220.752,406.009"></polygon><polygon points="236.24,406.009 237.74,387.941 239.24,406.009"></polygon><polygon points="272.794,406.013 274.294,387.941 275.794,406.013"></polygon><polygon points="291.281,406.008 292.781,387.941 294.281,406.008"></polygon><polygon points="253.503,406.009 256.003,381.639 258.503,406.009"></polygon><circle stroke="#000" stroke-miterlimit="10" cx="256.004" cy="332.689" r="4.832"></circle><path stroke="#000" stroke-miterlimit="10" d="M164.63 271.555s-47.059 31.934-2.101 77.731c0 0 26.891 22.27 67.227-18.487 0 0 25.21-23.53-19.748-47.479 0-.001-26.05-17.227-45.378-11.765zM346.47 271.557s47.055 31.938 2.092 77.731c0 0-26.893 22.266-67.224-18.494 0 0-25.209-23.533 19.753-47.478 0 0 26.051-17.224 45.379-11.759z"></path><path fill="#FFF" d="M223.454 307.27c0 6.265-5.079 11.344-11.344 11.344h-49.58c-6.265 0-11.344-5.079-11.344-11.344 0-6.266 5.079-11.345 11.344-11.345h49.58c6.265 0 11.344 5.079 11.344 11.345zM355.479 307.27c0 6.265-5.078 11.344-11.344 11.344h-49.58c-6.266 0-11.344-5.079-11.344-11.344 0-6.266 5.078-11.345 11.344-11.345h49.58c6.265 0 11.344 5.079 11.344 11.345z"></path><path fill="#FFF" d="M187.322 343.403c-6.264.001-11.344-5.077-11.344-11.343l-.005-49.58c0-6.265 5.078-11.344 11.343-11.345 6.266-.001 11.345 5.078 11.346 11.343l.004 49.581c0 6.266-5.078 11.344-11.344 11.344zM321.158 343.403c-6.265.001-11.345-5.077-11.345-11.343l-.005-49.58c0-6.265 5.078-11.344 11.344-11.345 6.266-.001 11.345 5.078 11.346 11.343l.004 49.581c0 6.266-5.078 11.344-11.344 11.344z"></path><circle stroke="#000" stroke-miterlimit="10" cx="321.155" cy="307.269" r="7.563"></circle><circle stroke="#000" stroke-miterlimit="10" cx="187.32" cy="307.27" r="7.563"></circle><circle stroke="#000" stroke-miterlimit="10" cx="176.278" cy="109.787" r="13.748"></circle><circle stroke="#000" stroke-miterlimit="10" cx="336.032" cy="109.791" r="13.748"></circle><circle stroke="#000" stroke-miterlimit="10" cx="377.235" cy="89.201" r="13.748"></circle><circle stroke="#000" stroke-miterlimit="10" cx="135.096" cy="89.201" r="13.748"></circle><path stroke="#000" stroke-miterlimit="10" d="M365.513 96.052s-33.124-61.464-108.978-61.051h-.531c-75.854-.42-108.983 61.041-108.983 61.041l-22.522-15.599S152.841 7.69 256.005 7.69h.534c103.163.01 131.498 72.766 131.498 72.766l-22.524 15.596z"></path><path stroke="#000" stroke-miterlimit="10" d="M323.69 115.377s-22.818-38.964-67.159-39.084h-.527c-44.341.116-67.163 39.078-67.163 39.078l-24.491-12.418s22.103-51.985 91.654-51.985h.53c69.551.007 91.648 51.994 91.648 51.994l-24.492 12.415z"></path><circle fill="#FFF" stroke="#FFF" stroke-miterlimit="10" cx="135.095" cy="89.202" r="7.983"></circle><circle fill="#FFF" stroke="#FFF" stroke-miterlimit="10" cx="175.973" cy="109.787" r="7.983"></circle><path fill="#FFF" stroke="#FFF" stroke-miterlimit="10" d="M141.779 93.56s27.867-64.022 114.225-64.022h-.282c86.358-.002 114.228 64.019 114.228 64.019l13.018-9.203s-24.501-69.105-127.245-69.102h.282c-102.744 0-127.244 69.105-127.244 69.105l13.018 9.203z"></path><circle fill="#FFF" stroke="#FFF" stroke-miterlimit="10" cx="377.235" cy="90.042" r="7.983"></circle><circle fill="#FFF" stroke="#FFF" stroke-miterlimit="10" cx="336.032" cy="109.791" r="7.983"></circle><path fill="#FFF" stroke="#FFF" stroke-miterlimit="10" d="M183.538 112.321s20.168-41.646 72.059-41.646h.813c51.891.002 72.057 41.65 72.057 41.65l14.33-7.125s-27.747-49.14-86.793-49.143c-59.047 0-86.796 49.138-86.796 49.138l14.33 7.126z"></path></svg>