<svg xmlns="http://www.w3.org/2000/svg" viewBox="0 0 512 512" id="dokkaebi" width="100%" height="100%"><rect x="54" y="53" fill="#FFF" stroke="#000" stroke-width="2" stroke-miterlimit="10" width="405" height="404"></rect><rect x="71.5" y="67.5" stroke="#000" stroke-miterlimit="10" width="367" height="370"></rect><path stroke="#000" stroke-width="2" stroke-miterlimit="10" d="M78.791 214.423l24.811-13.591 24.661-5.017 44.061-2.014 25.292 7.494 26.483 11.062 10.672 13.29 5.732 20.681L250.979 255h7.909l11.069-15.989s19.77-18.768 20.561-19.559c.789-.791 23.128-15.117 23.128-15.117l34.597-7.757 25.897-5.558 19.967 4.535 17.792 5.53 11.071 3.753 5.329 3.951 7.701 4.546V225l-5.133 6.325-4.738 1.358-25.697-7.783-22.141.1H356.94l-24.513 1.977-17.596 5.904-7.71 10.009-7.849 14.959-7.459 11.521.086 18.111 4.547 16.996 9.622 18.183 17.857 8.304 14.036 6.916 21.143 6.524 8.562 3.613 6.669 5.48-9.883 5.534-17.001 6.129-18.979-6.523-29.653-2.373-18.979-10.675-11.267-29.652-30.84 23.721-14.63 11.664-15.616 8.896-26.359-.395-24.052-3.955-14.251-2.371-48.812-73.145-3.559-46.655-11.663-19.274z"></path><path d="M440.667 232.684c5.537-34.754-6.526-48.54-6.526-48.54 23.13-28.627 77.226 35.847 77.226 35.847s8.902-92.612-71.097-134.871c0 0-36.771-18.536-71.036 18.365l-4.745-18.204s-21.604-26.282-103.848-26.282h-8.348c-82.244 0-103.849 26.282-103.849 26.282l-4.744 18.286c-34.266-36.9-71.037-18.407-71.037-18.407C-7.334 127.419 1.567 220.011 1.567 220.011s54.095-64.485 77.224-35.858c0 0-12.063 13.782-6.525 48.535l368.401-.004z"></path><path fill="#FFF" stroke="#000" stroke-width="2" stroke-miterlimit="10" d="M255.724 68c74.728 0 98.055 32.044 98.055 32.044l1.185 17.998c0 8.302 10.677 7.021 10.677 7.021 25.304-34.002 54.957-28.91 54.957-28.91 34.003.396 53.771 32.397 53.771 32.397 26.491 41.91 26.887 69.97 26.887 69.97-54.563-71.168-81.845-15.425-81.845-15.425 12.259 15.815 11.071 34.394 11.071 34.394-16.211-21.351-63.26-20.737-63.26-20.737C277.073 197.939 272.726 263 272.726 263H256.12l-.199 15.32 17.595.166c0 101.218 94.496 69.533 94.496 69.533-92.123 1.58-82.238-64.867-82.238-64.867 12.258-84.613 89.753-75.925 89.753-75.925 51.795.396 67.227 30.049 67.227 30.049 16.22 26.886-.002 56.943-.002 56.943s.802-30.423-12.245-39.517c0 0 9.515 90.196-86.563 128.943 0 0 2.025-11.763.05-19.273 0 0-13.739 10.871-88.072 10.871-74.331 0-88.07-10.871-88.07-10.871-1.977 7.511.05 19.272.05 19.272-96.077-38.746-86.564-128.942-86.564-128.942-13.047 9.094-12.244 39.513-12.244 39.513s-16.223-30.061-.003-56.947c0 0 15.433-29.66 67.228-30.055 0 0 77.496-8.702 89.752 75.909 0 0 9.886 66.422-82.238 64.841 0 0 94.298 31.629 94.298-69.589l17.792-.055.199-15.32h-17.001s-4.349-65.061-94.495-66.248c0 0-47.05-.506-63.261 20.845 0 0-1.186-18.638 11.071-34.453 0 0-27.281-55.776-81.843 15.393 0 0 .396-28.086 26.886-69.996 0 0 19.769-32.033 53.771-32.427 0 0 29.654-5.144 54.958 28.859 0 0 10.675 1.184 10.675-7.119l1.186-17.811s23.328-32.043 98.054-32.043h-.399z"></path><path fill="#C6D0D1" stroke="#C6D0D1" stroke-miterlimit="10" d="M164.219 363.379s1.823.424.592-.22c-.387-.202-3.324-1.605-3.695-1.804-17.554-9.333-18.415-13.392-18.415-13.392 22.734.99 44.129-6.211 44.129-6.211 42.941-17.279 38.373-55.337 38.373-55.337-2.901-22.933-19.24-35.322-19.24-35.322-43.492-33.475-116.505-11.07-116.505-11.07s-17.765 89.184 74.761 123.356zM347.694 363.379s-1.823.424-.592-.22c.388-.202 3.324-1.605 3.696-1.804 17.554-9.333 18.414-13.392 18.414-13.392-22.733.99-44.129-6.211-44.129-6.211-42.94-17.279-38.373-55.337-38.373-55.337 2.9-22.933 19.24-35.322 19.24-35.322 43.491-33.475 116.505-11.07 116.505-11.07s17.765 89.184-74.761 123.356z"></path><polygon fill="#FFF" points="116.945,271.853 202.545,270.863 201.359,294.191 193.057,315.146 178.625,326.414 167.752,330.962 155.562,332.242 151.099,331.841 137.704,328.392 122.085,314.949 111.608,286.283"></polygon><polygon fill="#FFF" points="400.433,271.853 314.832,270.863 316.02,294.191 324.322,315.146 338.753,326.414 349.626,330.962 361.816,332.242 366.279,331.841 379.675,328.392 395.293,314.949 405.771,286.283"></polygon><path stroke="#000" stroke-miterlimit="10" d="M207.453 279.424l.036-12.924h-98.45l-.018 15.294s-1.254 53.29 49.223 50.063c0 0-39.193 6.643-39.585-58.357h80.921s.838 52.764-41.336 58.357c0 0 50.492 5.557 49.209-52.433zM309.904 279.424l-.033-12.924h98.449l.017 15.294s1.254 53.29-49.222 50.063c0 0 39.192 6.643 39.582-58.357h-80.92s-.838 52.764 41.338 58.357c0 0-50.493 5.557-49.211-52.433z"></path><polygon fill="#FFF" stroke="#000" stroke-width="2" stroke-miterlimit="10" points="181.129,376.561 207.488,385.787 185.61,413.464"></polygon><polygon fill="#FFF" stroke="#000" stroke-width="2" stroke-miterlimit="10" points="332.428,376.561 306.069,385.787 327.946,413.464"></polygon><path fill="#FFF" stroke="#000" stroke-width="2" stroke-miterlimit="10" d="M256.333 402.656c31.315.263 40.906-7.38 40.906-7.38-2.9-.791-5.273-7.464-5.273-7.464S279.843 393 256.251 393h-.132c-23.591 0-35.716-5.188-35.716-5.188s-2.372 6.764-5.272 7.553c0 0 9.589 7.601 40.906 7.337l.296-.046z"></path><path fill="#C6D0D1" d="M213.207 72.646s-27.069 13.71-42.885 54.83c0 0 61.671-56.196 81.972-58.98-.001 0-35.592 2.048-39.087 4.15zM269.957 68.844s-42.965 43.872-56.144 89.735c0 0 74.172-69.558 106.292-79.606 0 0-29.062-9.719-50.148-10.129zM332.793 85.121s-47.511 42.619-67.167 101.135c0 0 62.501-62.406 88.415-69.392l-1.055-16.737c0-.001-12.182-12.816-20.193-15.006z"></path><polygon stroke="#000" stroke-miterlimit="10" points="256.515,353.5 273.221,353.5 256.333,333.5 255.823,333.5 238.855,353.5 255.724,353.5"></polygon></svg>