<svg xmlns="http://www.w3.org/2000/svg" viewBox="0 0 512 512" id="ela" width="100%" height="100%"><rect x="48" y="55" fill="#FFF" stroke="#000" stroke-width="2" stroke-miterlimit="10" width="413" height="414"></rect><rect x="65" y="73" stroke="#000" stroke-width="2" stroke-miterlimit="10" width="379" height="378"></rect><rect x="81" y="91" fill="#4B929C" width="347" height="343"></rect><g stroke="#000" stroke-width="2" stroke-miterlimit="10"><path d="M400.554 235.228l-7.377 20.879 8.713.946a164.193 164.193 0 0 1-26.762 36.425l-4.946-5.324-11.715 9.292 7.073 5.154a167.742 167.742 0 0 1-12.141 9.673c-2.255-.719-4.799-1.325-7.661-1.77 0 0-30.078 16.701-56.405 24.24l-29.79 3.507s-6.126 2.263-22.969 4.613c-24.896-2.787-48.126-11.013-68.439-23.456l3.766-3.378-13.884-9.696-3.15 4.04c-15.194-11.457-28.332-25.444-38.762-41.338l7.202-1.891-9.544-14.948-4.86 4.768c-10.197-18.891-16.374-39.989-18.386-62.378L105 198.059v-34.34l-14.623 3.119c2.238-28.208 11.509-54.404 26.374-76.794l4.05 7.822 12.533-15.756-7.913-4.161c30.398-37.839 77.331-62.096 130.012-62.096 9.537 0 18.885.792 27.979 2.327l-5.072 5.551L298 28.376V21.46c32 8.282 59.035 25.315 80.094 48.279l-7.191 3.887 16.561 14.544 3.059-3.507c19.411 26.842 30.84 59.712 30.84 95.217 0 22.236-4.471 43.438-12.582 62.774l-8.227-7.426z"></path><polygon points="171.9,316.029 168.134,319.407 100.31,380.267 154.866,310.373 158.016,306.333"></polygon><polygon points="421.38,343.301 365.54,302.6 358.467,297.445 370.182,288.153 375.128,293.478"></polygon><polygon points="427.888,259.873 401.89,257.053 393.177,256.107 400.554,235.228 408.789,242.654"></polygon><polygon points="424.416,45.345 390.557,84.663 387.536,88.169 371.049,73.625 378.392,69.739"></polygon><polygon points="298,0.5 298,28.376 278.338,23.73 282.963,18.179"></polygon><polygon points="133.285,82.109 120.702,97.866 116.555,90.044 104.215,66.757 125.397,77.948"></polygon><polygon points="105,163.719 105,198.059 90.515,194.585 30.652,179.879 90.475,166.838"></polygon><polygon points="123.305,267.145 116.104,269.035 89.463,276.033 108.901,256.964 113.761,252.196"></polygon><path d="M361.938 347.809c-34.997 13.874-105.866 24.911-105.866 24.911 47.727 7.676 93.648 9.365 93.648 9.365 8.963.872 10.848 7.942 10.848 7.942 2.819 8.152-3.402 11.239-3.402 11.239-42.667 22.221-149.402 29.098-149.402 29.098 42.234 14.002 114.909 17.832 114.909 17.832 7.592.606 9.041 6.465 9.041 6.465 1.302 5.39-3.037 6.674-3.037 6.674-60.604 28.685-126.892 33.823-126.892 33.823 18.579 3.976 33.001 15.636 33.453 15.999-15.629-8.072-52.925-11.207-52.925-11.207-5.311.21-5.97-4.542-5.97-4.542-.321-6.06 5.536-7.271 5.536-7.271 92.85-12.12 124.74-29.492 124.74-29.492-72.961-2.691-123.108-17.275-133.088-20.807-9.979-3.531-8.191-11.063-8.191-11.063 0-9.34 9.701-9.033 9.701-9.033 62.375-1.422 105.545-16.669 105.545-16.669-33.521.809-124.887-22.285-124.887-22.285-14.752-2.157-13.302-15.489-13.302-15.489 1.735-14.545 14.751-15.353 14.751-15.353 38.424-.59 63.641-2.877 79.426-5.083 16.843-2.351 22.969-4.613 22.969-4.613l29.79-3.507c26.327-7.539 56.405-24.24 56.405-24.24 2.862.444 5.406 1.051 7.661 1.77 17.538 5.575 17.649 18.164 17.649 18.164 1.451 12.791-9.11 17.372-9.11 17.372z"></path><polygon points="404.459,118 449.582,118 407.93,130.39"></polygon></g><g fill="#FFF"><path d="M140.265 238.576s12.689 24.933 36.119 48.5c0 0-1-14.804-3.754-43.964-.001 0-10.778-.112-32.365-4.536zM115.138 230.648s3.54 12.795 15.254 24.241c0 0-1.809-3.432-3.797-19.829 0 .001-5.004-1.83-11.457-4.412zM165.676 300.181s-11.862-17.553-24.292-40.981c0 0 1.084 14.773 6.472 25.77 0-.001 12.072 11.186 17.82 15.211zM200.976 319.407c-5.154-12.161-12.154-67.211-12.154-67.211s27.968 65.158 34.231 73.585c0 0-21.551-5.132-22.077-6.374zM203.146 244.579s16.481 42.498 23.857 53.406c0 0 4.482-29.157 6.941-53.363l-30.798-.043zM239.59 328.242s4.044-37.795 5.057-67.626c0 0 17.631 57.407 22.266 67.992 0 0-15.739 1.163-27.323-.366zM254.336 244.587s17.935 59.458 19.236 64.845c0 0 20.249-28.587 31.095-64.996l-50.331.151zM277.773 327.526s27.327-39.643 38.318-66.307c0 0 5.967 25.364 7.032 52.544.001.001-23.647 11.658-45.35 13.763zM326.372 243.61s8.81 33.097 9.388 38.349c0 0 9.601-15.01 18.251-41.037 0 0-17.503 2.184-27.639 2.688zM339.258 304.483s10.966-17.946 24.994-61.714c0 0 4.087 7.811 6.65 34.163 0 .001-18.789 19.941-31.644 27.551zM373.583 237.389s1.574 4.285 1.545 7.189c0 0 2.157-2.07 5.691-9.009 0 0-5.597 1.453-7.236 1.82z"></path></g><path fill="#FFF" stroke="#FFF" stroke-width="2" stroke-miterlimit="10" d="M165.247 158.203l34.365 9.209s-6.661 16.479-21.748 12.437c0 0-17.532-3.305-12.617-21.646zM346.03 158.204l-34.365 9.208s6.661 16.479 21.749 12.437c0 0 17.532-3.304 12.616-21.645z"></path><path fill="#FFF" d="M256.463 30c101.267-1 132.916 94.878 132.916 94.878 6.458 14.748 8.354 37.732 8.354 37.732l-24.15-3.149c.074-11.312-4.559-18.603-4.559-18.603-2.948-6.952-14.088-4.222-20.564-1.924l-.841-16.014-5.494 17.369s-.532.108-13.451 6.74c-16.485 8.464-45.412 20.597-45.412 20.597 4.074 15.043 12.99 23.407 20.964 28.02l-2.451 25.846 11.522-21.819c3.747 1.207 6.266 1.485 6.266 1.485s3.025.583 8.533.269c3.678-.21 7.081-.409 10.189-1.1l7.889 12.95-.902-15.112c12.01-4.825 18.04-13.302 18.04-13.302s6.256-7.791 7.449-12.12c.442-1.613 1.044-3.418 1.393-5.374l27.04 7.796c-.792 25.255-9.197 39.055-9.197 39.055-14.174 27.607-60.31 23.567-60.31 23.567-22.562-2.829-73.614-3.367-73.614-3.367s-51.053.539-73.614 3.367c0 0-46.136 4.04-60.309-23.567 0 0-9.256-15.197-9.256-42.881 0 0 1.519-26.052 5.785-36.572l20.248 14.544s-.579 15.352 2.458 23.432l-10.992 15.353 18.417-3.232s11.191 16.564 35.191 16.564v11.176l8.557-11.445s28.071-3.098 36.314-33.533c0 0-29.353-11.439-45.407-20.597l-14.749-29.493-.287 23.297s-21.081-9.971-25.309 0l-20.354-15.955S154.415 29 255.683 30h.78z"></path><path stroke="#000" stroke-width="2" stroke-miterlimit="10" d="M256.072 112.141c35.68 0 57.75-14.483 57.75-14.483S286.545 126 256.072 126h-.391c-30.472 0-57.749-28.342-57.749-28.342s22.07 14.379 57.749 14.379l.391.104z"></path></svg>