<svg xmlns="http://www.w3.org/2000/svg" viewBox="0 0 300 300" id="finka" width="100%" height="100%"><polygon points="54.677,245.033 245.589,245.033 245.589,86.901 198.774,54.121 54.677,54.121" fill="#fcae1d"></polygon><polygon points="35.095,103.904 63.72,93.298 44.884,149.577 114.971,103.309 64.455,194.71 106.09,160.212 63.965,241.704 104.106,196.423 170.925,245.033 245.589,164.078 203.233,248.802 211.555,248.802 240.192,228.731 228.933,264.614 35.095,264.614" fill="#c98e2b"></polygon><polygon points="245.589,245.033 54.677,245.033 54.677,54.121 198.774,54.121 186.889,45.799 47.31,45.799 47.31,253.355 254.866,253.355 254.866,93.397 245.589,86.901" fill="#231f20"></polygon><polygon points="254.866,93.397 254.866,253.355 47.31,253.355 47.31,45.799 186.889,45.799 170.81,34.54 35.095,34.54 35.095,264.614 265.169,264.614 265.169,100.611" fill="#fff"></polygon><g><path d="M91.46 209.966l-24.394 36.551h101.096l8.801-12.238 61.435-90.969v-32.716l8.036-10.667-7.741-16.552-14.104-1.836 5.487-7.098V70.78l-15.493-13.249-9.635-2.09-5.935-16.154-20.376-2.907-8.138-11.779-13.982.061-2.968-5.874-21.459-8.871-8.159 22.926-33.45 36.143 5.956 55.724 19.336 41.446-24.313 43.81z" fill="#231f20"></path><g fill="#fff"><polygon points="225.947,127.12 234.154,116.226 234.154,116.226"></polygon><polygon points="234.154,116.226 234.154,140.537 176.962,234.279 238.397,143.31 238.397,110.594"></polygon><polygon points="238.397,110.594 246.433,99.927 238.397,110.594"></polygon><path d="M234.154 116.226l12.279-16.299-7.741-16.552-14.104-1.836 5.487-7.098V70.78l-15.493-13.249-9.635-2.09-5.935-16.154-20.376-2.907-8.138-11.779-13.982.061-2.968-5.874-19.992-8.293-1.465-.579-8.159 22.926-33.45 36.143 5.956 55.724 19.336 41.446-24.314 43.811 28.718-40.141 13.625 6.527-15.234-9.697-17.523-40.968-6.119-55.316 32.285-35.744 6.841-19.333 9.828 3.382 6.48 3.234 1.84 3.792-2.652.612-23.905 39.651 8.24 14.767 11.259 1.632c5.122 7.186 7.766 13.632 9.219 18.112 4.742 14.616 3.889 30.102 3.427 38.509-.24 4.352-.618 7.608-.245 7.669.705.116 3.795-11.245 4.786-22.928a97.878 97.878 0 0 0-.951-24.147l10.769 3.753 7.424 15.338 18.479 1.917 5.099 10.402 4.528-3.051-4.65-9.717 21.988-33.41 10.688 2.774 4.487 12.34-14.244 27.193 8.207-10.892zm-96.272-38.429l-6.69-12.238 20.968-35.001 15.501-1.632 7.995 10.361-26.516 38.509h-11.258zm23.049 16.317l-8.893-12.646 28.555-39.161 15.093.449 5.222 13.951-28.27 40.385-11.707-2.978zm38.549 20.07h-16.317l-7.057-12.891 28.27-41.364 11.993 2.284 9.056 10.198-25.945 41.773z"></path></g></g><g><polygon points="244.597,67.893 234.256,25.305 210.821,37.176 216.756,69.3" fill="#fff"></polygon><path d="M236.203 33.321l-24.03 11.173 1.433 7.757 24.847-9.662-2.25-9.268z" fill="#231f20"></path><polygon points="213.606,52.252 238.453,42.59 244.597,67.893 216.756,69.3" fill="#fcae1d"></polygon><polygon points="254.866,82.035 265.169,82.937 265.169,63.596 254.866,66.408" fill="#fff"></polygon><polygon points="245.589,68.941 245.589,81.224 254.866,82.035 254.866,66.408" fill="#231f20"></polygon><polygon points="245.589,68.941 230.075,73.176 230.075,74.441 228.924,75.935 235.176,80.313 245.589,81.224" fill="#fcae1d"></polygon><line x1="245.589" y1="81.224" x2="235.176" y2="80.313" fill="#fcae1d"></line><g fill="#050708"><polygon points="202.091,20.768 212.738,26.601 204.457,42.184"></polygon><polyline points="262.791,17.341 248.677,45.799 269.4,29.253 262.791,17.341"></polyline><path d="M264.607 125.933l7.893 5.324-81.566 100.351 73.673-105.675z"></path></g></g><g><polygon points="226.926,116.226 145.715,258.959 103.045,264.614 138.698,204.5 85.504,274.42 54.256,274.42 155.016,174.313 142.043,222.612" fill="#fff"></polygon><polygon points="85.504,274.42 93.52,280.131 109.723,253.355 138.698,204.5" fill="#231f20"></polygon><polygon points="35.573,233.259 67.698,190.733 35.573,223.959" fill="#fff"></polygon><polygon points="102.148,173.457 42.182,262.631 35.573,253.355" fill="#fff"></polygon></g></svg>