<svg xmlns="http://www.w3.org/2000/svg" viewBox="0 0 300 300" id="lion" width="100%" height="100%"><polygon points="245.958,108.984 245.958,87.1 245.958,54.25 54.636,54.25 54.636,245.572 196.045,245.572 252.2,252.292 239.446,204.094 267.531,171.103 255.254,143.754 270.025,114.898 245.958,119.675" fill="url(#lion_a)"></polygon><image width="179" height="229" xlink:href="53BF539.png" transform="translate(137 69)" overflow="visible"></image><polygon points="270.025,114.898 216.757,160.678 267.531,171.103 212.709,181.895 252.2,252.292 203.018,206.913 182.514,207.32 185.023,142.882 195.662,147.065 197.381,138.814" fill="#fff"></polygon><path d="M265.16 143.794l17.768-38.128-27.673 4.004V45.909H47.253v208.002h147.231a904.71 904.71 0 0 1 69 7.456l-14.717-54.944 28.944-33.972-12.551-28.657zM252.2 252.292l-56.155-6.72H54.636V54.25h191.323v65.424l24.067-4.777-14.771 28.856 12.277 27.349-28.085 32.991 12.753 48.199z" fill="#231f20"></path><path d="M271.701 144.244l20.049-45.868-26.17 3.901v-67.65H35.012v230.568H194.19c11.976.89 24.286 1.628 36.915 2.182 13.817.607 27.642 2.189 40.717 2.33-5.437-20.4-11.242-42.026-16.679-62.425l30.17-34.463-13.612-28.575zm-8.218 117.124a904.472 904.472 0 0 0-69-7.456H47.253V45.91h208.001v63.761l27.673-4.004-17.768 38.128 12.55 28.657-28.944 33.972 14.718 54.944z" fill="#fff"></path><g><polygon points="54.636,50.995 130.334,13.875 167.454,58.19 191.002,61.787 193.455,73.561 242.348,88.442 232.7,108.228 239.405,117.876 234.172,124.907 213.077,129.813 193.455,144.367 177.609,200.863 207.354,219.097 166.351,247.387 162.331,234.141 113.492,227.437 90.312,246.61 54.132,246.61" fill="#fcae1d"></polygon><polygon points="161.69,72.498 192.964,89.913 148.24,87.706" fill="#242021"></polygon><polygon points="159.278,79.448 170.602,88.81 173.087,88.932 177.92,83.536" fill="#fff"></polygon><path d="M54.636 53.284c6.955-4.55 22.243-13.196 43.531-14.553 17.708-1.129 31.629 3.294 39.118 6.295-8.203 2.153-13.136 4.47-21.34 6.623L54.636 63.423V53.284z" fill="url(#lion_b)"></path><polygon points="54.636,111.662 54.636,89.913 130.784,60.847 84.875,94.492" fill="url(#lion_c)"></polygon><path d="M54.132 230.279v-30.723l86.177-89.529-70.315 113.649a55.235 55.235 0 0 1-15.862 6.603z" fill="url(#lion_d)"></path><path d="M47.253 45.91a168.743 168.743 0 0 1 13.911-9.142c24.985-14.703 49.778-20.586 69.17-22.893a148.63 148.63 0 0 1 37.12 44.315c7.522 1.036 16.025 2.562 23.547 3.598l2.453 11.774 48.894 14.881-9.648 19.786 6.704 9.648-5.233 7.032c.192 2.86.187 8.575-2.661 14.916-2.389 5.32-6.884 10.516-8.95 12.344.04-2.65.942-12.052-4.579-18.266a21.637 21.637 0 0 0-4.906-4.088c-5.263 4.784-14.351 14.31-20.43 29.178-6.48 15.848-6.312 29.868-5.733 37.049a27.846 27.846 0 0 0 8.503-3.27c4.984-2.937 7.883-6.761 9.321-8.994.913 3.043 2.41 9.593.393 17.381a31.844 31.844 0 0 1-4.972 10.581l7.195 7.359a60.156 60.156 0 0 1-16.025 17.17c-7.654 5.497-20.219 9.87-24.978 11.12-6.813 0-9.375-.858-16.189-.858l12.169-12.387a253.667 253.667 0 0 1-48.84-6.705 94.143 94.143 0 0 1-12.272 11.644c-3.239 2.562-9.497 6.916-11.337 7.999-1.84 1.083-24.185.307-36.609.307v-16.925c2.229-.431 5.966-1.544 8.871-2.698a43.507 43.507 0 0 0 7.849-4.088l70.315-113.649-38.101 97.133a171.454 171.454 0 0 0 40.554 13.409 171.353 171.353 0 0 0 39.409 3.107l-8.667 12.428a44.593 44.593 0 0 0 12.918-7.686 44.568 44.568 0 0 0 8.667-9.975c-4.388-2.927-18.914-13.402-24.856-33.359-7.693-25.841 5.119-47.054 7.195-50.365l-43.988 34.667 26.164-50.365 34.831-2.78c-.686.585-7.887 6.941-6.868 16.516.684 6.431 4.667 10.463 5.887 11.61 1.059-3.134 4.506-11.986 13.768-18.596 10.229-7.3 20.862-7.091 24.006-6.914a111.503 111.503 0 0 0-19.459-21.422l15.371 4.742 4.742-8.994-44.642-12.428-2.289-10.138-24.856-3.434a149.906 149.906 0 0 0-10.859-17.241A150.602 150.602 0 0 0 127.06 25.65a245.135 245.135 0 0 0-39.9 11.937 245.003 245.003 0 0 0-32.528 15.698v10.138a94.366 94.366 0 0 1 24.516-9.975c15.362-3.846 28.534-3.007 36.793-1.799a281.578 281.578 0 0 0-27.145 8.34 282.015 282.015 0 0 0-34.164 15.044v36.629l30.239-17.17-30.239 40.063h-6.881l-.498-88.645z" fill="#231f20"></path><polygon points="133.441,169.386 122.812,191.952 136.548,145.348 159.605,119.021" fill="url(#lion_e)"></polygon><polygon points="227.14,102.178 192.964,89.913 161.69,72.498 160.096,67.184 184.951,70.618 187.241,80.756 231.883,93.184" fill="url(#lion_f)"></polygon><path d="M218.31 126.788a40.822 40.822 0 0 0 11.446-2.044 29.457 29.457 0 0 1-.491 10.302 29.424 29.424 0 0 1-3.352 8.421c-.035-2.137-.391-6.072-2.616-10.302a22.799 22.799 0 0 0-4.987-6.377zM189.121 200.885a18.715 18.715 0 0 0 6.95 7.276 19.738 19.738 0 0 0 4.006-6.153 19.894 19.894 0 0 0 1.39-9.3 30.116 30.116 0 0 1-6.817 5.59 29.919 29.919 0 0 1-5.529 2.587z" fill="#fff"></path></g></svg>