<svg xmlns="http://www.w3.org/2000/svg" viewBox="0 0 512 512" id="valkyrie" width="100%" height="100%"><rect x="23.454" y="29.538" fill="#FFF" stroke="#000" stroke-miterlimit="10" width="457.563" height="444.539"></rect><rect x="41.941" y="47.605" stroke="#000" stroke-miterlimit="10" width="421.008" height="410.084"></rect><rect x="59.168" y="63.992" fill="#BE9431" width="386.135" height="376.05"></rect><path stroke="#000" stroke-miterlimit="10" d="M252.445 448.445l-12.519-8.403C202.618 351.387 59.168 298.865 59.168 298.865l-10.972-4.621V63.363l19.795.629 86.555 69.328c55.462-19.748 85.38-69.328 85.38-69.328l12.309-10.504 12.763 10.497s29.913 49.582 85.374 69.335L436.933 64l19.796-.627-.021 230.881-10.973 4.62s-143.454 52.509-180.771 141.161l-12.52 8.402"></path><path fill="#FFF" stroke="#000" stroke-miterlimit="10" d="M183.184 162.717s-55.038 19.338-27.289 126.476c0 0-70.6-69.737-16.832-149.157L-17.263 8.129s-24.555 29.823 107.815 128.96l-.647 18.92-94.131-80.235s-13.442 23.952 96.237 113.429l-.239 19.024-67.414-59.559s-3.356 28.781 63.461 92.216l-21.421 48.323s64.708 12.175 150.017 96.613c0 0-76.493-129.82-29.859-157.559 0 0 11.342-14.289 53.371 54.192 0 .002-42.037-120.579-56.743-119.736z"></path><path fill="#FFF" stroke="#FFF" stroke-miterlimit="10" d="M252.233 72.815c-19.747 34.034-71.848 71.43-71.848 71.43 36.556 26.05 71.85 133.613 71.85 133.613h.21s35.294-107.563 71.849-133.614c0 0-52.101-37.396-71.849-71.429"></path><polygon fill="#FFF" stroke="#FFF" stroke-miterlimit="10" points="67.992,464.832 155.807,464.832 216.311,277.857"></polygon><rect x="24.005" y="38.782" fill="#FFF" width="17.333" height="158.193"></rect><path fill="#FFF" stroke="#000" stroke-miterlimit="10" d="M321.69 165.581s55.037 19.339 27.285 126.477c0 0 70.602-69.736 16.836-149.157l156.33-131.902s24.555 29.824-107.818 128.958l.646 18.92 94.133-80.233s13.441 23.952-96.24 113.426l.238 19.025 67.416-59.558s3.355 28.781-63.463 92.214l21.419 48.324s-64.709 12.174-150.02 96.609c0 0 76.497-129.818 29.864-157.559 0 0-11.342-14.289-53.373 54.191 0 .001 42.041-120.579 56.747-119.735z"></path><rect x="463.506" y="36.949" fill="#FFF" width="16.999" height="172.526"></rect><polygon fill="#FFF" stroke="#FFF" stroke-miterlimit="10" points="439.979,464.829 352.163,464.831 291.652,277.859"></polygon></svg>