<svg xmlns="http://www.w3.org/2000/svg" viewBox="0 0 512 512" id="vigil" width="100%" height="100%"><rect x="22" y="10" fill="#FFF" stroke="#000" stroke-width="2" stroke-miterlimit="10" width="37" height="467"></rect><rect x="106" y="10" fill="#FFF" stroke="#000" stroke-width="2" stroke-miterlimit="10" width="40" height="467"></rect><rect x="190" y="31" fill="#FFF" stroke="#000" stroke-width="2" stroke-miterlimit="10" width="44" height="468"></rect><rect x="276" y="38" fill="#FFF" stroke="#000" stroke-width="2" stroke-miterlimit="10" width="45" height="466"></rect><rect x="321" y="3" fill="#FFF" stroke="#000" stroke-width="2" stroke-miterlimit="10" width="42" height="469"></rect><rect x="363" y="3" fill="#FFF" stroke="#000" stroke-width="2" stroke-miterlimit="10" width="42" height="469"></rect><rect x="405" y="10" fill="#FFF" stroke="#000" stroke-width="2" stroke-miterlimit="10" width="44" height="467"></rect><rect x="449" y="10" fill="#FFF" stroke="#000" stroke-width="2" stroke-miterlimit="10" width="39" height="467"></rect><rect x="234" y="43" fill="#FFF" stroke="#000" stroke-width="2" stroke-miterlimit="10" width="42" height="469"></rect><rect x="59" y="21" fill="#FFF" stroke="#000" stroke-width="2" stroke-miterlimit="10" width="47" height="467"></rect><rect x="40.5" y="28.5" stroke="#000" stroke-miterlimit="10" width="19" height="431"></rect><rect x="106.5" y="441.5" fill="none" stroke="red" stroke-miterlimit="10" width="40" height="21"></rect><rect x="59.5" y="447.5" stroke="#000" stroke-miterlimit="10" width="47" height="21"></rect><rect x="146.5" y="443.5" stroke="#000" stroke-miterlimit="10" width="44" height="22"></rect><rect x="106.5" y="441.5" fill="none" stroke="red" stroke-miterlimit="10" width="40" height="21"></rect><rect x="190.5" y="462.5" stroke="#000" stroke-miterlimit="10" width="42" height="21"></rect><rect x="233.5" y="472.5" stroke="#000" stroke-miterlimit="10" width="42" height="20"></rect><rect x="276.5" y="466.5" stroke="#000" stroke-miterlimit="10" width="45" height="20"></rect><rect x="106.5" y="441.5" stroke="#000" stroke-miterlimit="10" width="40" height="21"></rect><rect x="321.5" y="434.5" stroke="#000" stroke-miterlimit="10" width="42" height="20"></rect><rect x="363.5" y="434.5" stroke="#000" stroke-miterlimit="10" width="42" height="20"></rect><rect x="405.5" y="441.5" stroke="#000" stroke-miterlimit="10" width="44" height="21"></rect><rect x="146" y="13" fill="#FFF" stroke="#000" stroke-width="2" stroke-miterlimit="10" width="44" height="471"></rect><rect x="59" y="60" fill="#C6D0D1" width="47" height="388"></rect><rect x="106" y="48" fill="#C6D0D1" width="40" height="394"></rect><rect x="146" y="52" fill="#C6D0D1" width="44" height="400"></rect><rect x="190" y="70" fill="#C6D0D1" width="43" height="393"></rect><rect x="233" y="80" fill="#C6D0D1" width="43" height="393"></rect><rect x="276" y="73" fill="#C6D0D1" width="45" height="394"></rect><rect x="321" y="45" fill="#C6D0D1" width="42" height="390"></rect><rect x="363" y="45" fill="#C6D0D1" width="42" height="390"></rect><rect x="405" y="48" fill="#C6D0D1" width="44" height="394"></rect><rect x="59.5" y="37.5" stroke="#000" stroke-miterlimit="10" width="47" height="22"></rect><rect x="146.5" y="30.5" stroke="#000" stroke-miterlimit="10" width="44" height="21"></rect><rect x="106.5" y="27.5" stroke="#000" stroke-miterlimit="10" width="40" height="20"></rect><rect x="190.5" y="47.5" stroke="#000" stroke-miterlimit="10" width="42" height="22"></rect><rect x="233.5" y="59.5" stroke="#000" stroke-miterlimit="10" width="42" height="20"></rect><rect x="276.5" y="51.5" stroke="#000" stroke-miterlimit="10" width="45" height="22"></rect><rect x="321.5" y="23.5" stroke="#000" stroke-miterlimit="10" width="42" height="21"></rect><rect x="363.5" y="23.5" stroke="#000" stroke-miterlimit="10" width="42" height="21"></rect><rect x="405.5" y="27.5" stroke="#000" stroke-miterlimit="10" width="44" height="20"></rect><rect x="449.5" y="27.5" stroke="#000" stroke-miterlimit="10" width="23" height="435"></rect><path stroke="#000" stroke-miterlimit="10" d="M278.186 211.367l3.997 33.386s9.415-.456 16.698 3.187c0 0 6.619 20.942 22.619 20.487v-37.788s-18.521 6.223-26.715 8.802c0 0-5.163 1.973-6.984 0 0 0-9.261-12.445-9.615-28.074zM321.5 200.363s62-12.52 84-21.626v54.634s-21.059 11.382-44.732 11.382c0 0-32.268 0-39.268-7.74v-36.65zM405.5 185.111s33-6.829 44-13.658v13.658s-8.797 3.187-12.894 4.553c0 0-.106 30.503-31.106 47.349v-51.902zM486.147 164.5l-13.647 4.221v7.285s7.507-4.045 12.06-5.752l3.863-5.753h-2.276zM233.468 220.041l-3.642 24.459s-10.471-9-10.471 0c0 0-5.854 18.463-28.854 20.284v-41.43s16.476 8.65 26.947 9.561c0 0 4.141 8.195 13.701-18.894l.932-7.12 1.387 13.14zM146.5 197.631s20 10.854 44 13.735v42.946s-23 2.277-44 0v-56.681zM146.5 193.306s-38.011-5.919-40.742-9.561c-2.732-3.642-.116 53.267-.116 53.267s19.858 13.659 40.858 13.659v-57.365z"></path><path stroke="#000" stroke-miterlimit="10" d="M105.99 244.98s-30.074-14.683-31.896-47.235c0 0-7.595-1.707-14.595-6.26v-10.016s24.004 12.292 45.25 11.837l1.241 51.674zM18.577 160.981s17.756 8.195 22.309 6.374l-.456 8.65s-15.024-6.374-21.853-15.024z"></path><rect x="146.5" y="451.5" stroke="#000" stroke-miterlimit="10" width="42" height="21"></rect><line fill="none" stroke="#000" stroke-width="2" stroke-miterlimit="10" x1="59" y1="21" x2="59" y2="477"></line><line fill="none" stroke="#000" stroke-width="2" stroke-miterlimit="10" x1="106" y1="21" x2="106" y2="477"></line><line fill="none" stroke="#000" stroke-width="2" stroke-miterlimit="10" x1="146" y1="16" x2="146" y2="472"></line><line fill="none" stroke="#000" stroke-width="2" stroke-miterlimit="10" x1="190" y1="21" x2="190" y2="477"></line><line fill="none" stroke="#000" stroke-width="2" stroke-miterlimit="10" x1="234" y1="42" x2="234" y2="498"></line><line fill="none" stroke="#000" stroke-width="2" stroke-miterlimit="10" x1="276" y1="47" x2="276" y2="504"></line><line fill="none" stroke="#000" stroke-width="2" stroke-miterlimit="10" x1="321" y1="24" x2="321" y2="481"></line><line fill="none" stroke="#000" stroke-width="2" stroke-miterlimit="10" x1="363" y1="16" x2="363" y2="472"></line><line fill="none" stroke="#000" stroke-width="2" stroke-miterlimit="10" x1="405" y1="20" x2="405" y2="476"></line></svg>