<svg xmlns="http://www.w3.org/2000/svg" viewBox="0 0 512 512" id="ying" width="100%" height="100%"><rect x="79.5" y="59.5" fill="#FFF" stroke="#000" stroke-miterlimit="10" width="372" height="372"></rect><rect x="96.5" y="75.5" stroke="#000" stroke-miterlimit="10" width="339" height="342"></rect><rect x="111" y="89" fill="#B24B1D" width="311" height="314"></rect><ellipse stroke="#000" stroke-miterlimit="10" cx="265.463" cy="329.695" rx="114.364" ry="112.198"></ellipse><ellipse stroke="#000" stroke-miterlimit="10" cx="359.087" cy="143.832" rx="92.55" ry="89.988"></ellipse><ellipse stroke="#000" stroke-miterlimit="10" cx="162.35" cy="202.225" rx="82.456" ry="81.797"></ellipse><path fill="#FFF" stroke="#FFF" stroke-miterlimit="10" d="M202.932 95.729s-12.558 29.464-23.257 38.234c-10.699 8.771-11.81-1.438-13.26-6.555-1.451-5.116-5.996-26.117-5.815-27.214.182-1.096-2.362 34.357-12.88 35.636 0 0-15.598 3.292-25.209 11.332 0 0-8.524 7.311-29.56-12.606 0 0 10.336 11.877 12.874 21.379 2.539 9.501-8.161 17.541-11.243 29.783-3.083 12.242-8.161 19.954-8.161 19.954L36.917 218.5h51.319s7.798-1.043 9.974 8.094c2.176 9.135 3.989 7.884 6.347 12.27 2.357 4.385 4.896 11.617-6.528 27.332 0 0 10.518-6.802 14.507-8.08 3.99-1.279 8.705-2.759 10.699-.019 1.995 2.74 8.523 6.567 12.693 8.029s9.974 5.477 6.528 34.347c0 0 7.072-20.832 11.061-23.939 0 0 8.523-13.156 15.958-3.473l11.425 13.886 34.817-30.696-5.259-14.983s13.419-4.934 17.59-28.505c0 0 1.088-5.481 5.622-6.943 0 0 6.211-2.467 21.715-6.669 0 0-21.897-2.649-28.833-10.461 0 0-4.533-4.842 1.813-9.182 0 0 7.525-5.984 22.033-16.034 0 0-14.462 4.522-22.486 4.659 0 0-4.081.594-10.835-3.152 0 0-.56-.426-.862-.914 0 0-5.516-11.359-19.418-19.155 0 0-1.979-.853-2.75-1.995-.001 0-5.411-.625 8.885-47.188z"></path><path fill="#FFF" stroke="#FFF" stroke-miterlimit="10" d="M180.899 282.927s-9.249 7.309-13.056 34.169c0 0 .181 2.559-1.451 4.933 0 0-11.424 13.705-38.444 14.618 0 0 25.206 3.106 33.91 8.04 0 0 9.974 4.934 3.264 7.125 0 0-23.03 14.618-66.551 33.073 0 0 59.116-12.79 69.634-11.328 0 0 7.979 1.096 10.155 7.309 0 0 5.259 6.943-26.838 38.919 0 0 21.761-14.436 41.89-19.003 0 0 1.088-1.096 4.714 2.559 0 0 24.299 23.753 48.961 25.215 0 0 3.354.64 7.525-1.188 0 0 2.357-2.466 2.721 5.482 0 0 1.359 10.142 1.179 16.444 0 0 3.173-19.916 6.528-22.292 0 0 2.109-2.101 3.548 2.833 0 0-.284 1.462 5.337.548 0 0 4.594-1.766 7.616 4.69 3.023 6.457 23.938 39.528 30.103 76.072 0 0-8.523-55.363-8.523-75.646 0-20.282 6.045-10.597 11.364-2.801 5.318 7.795 17.65 28.382 21.821 35.143s-17.408-39.65-17.591-45.68c0 0-2.085-4.934 1.088-6.762 3.174-1.826 8.342-3.745 14.599-10.598 0 0 1.813-4.02 7.162-.091 0 0 8.251 5.208 32.369 15.348 0 0-17.408-21.469-22.123-35.629 0 0-.816-3.107 1.225-5.391 0 0 1.723-2.375 5.35-5.254 0 0 5.938-3.518 14.189-2.056 0 0 11.696.822 39.168 5.481 0 0-28.65-9.318-43.157-24.118 0 0-5.984-4.843-3.355-10.142 0 0 3.083-15.439-3.264-39.833 0 0-1.542-2.467-.906-5.481 0 0 2.175-13.248 56.939-41.661 0 0-48.871 20.465-65.191 17.999 0 0-3.897-.366-6.799-3.838 0 0-3.99-5.299-8.704-4.659 0 0-4.353-.365-3.719-3.837 0 0 1.179-6.03 11.696-16.993 0 0-11.877 9.167-17.861 10.69 0 0-5.683 1.522-5.984-6.274 0 0-.905-5.604-8.28-7.431 0 0-3.205-.182-3.748-2.801-.545-2.62-1.391-33.743 10.759-64.257 0 0-17.046 38.919-33.004 54.999 0 0-9.791 8.436-17.407-6.334 0 0-11.697-23.267-12.694-34.595 0 0-.726 36.727-13.238 43.304 0 0-23.03 8.954-34.363 16.171-11.336 7.218-28.563 34.809-28.563 34.809z"></path><path fill="#FFF" stroke="#FFF" stroke-miterlimit="10" d="M343.923 197.28s-5.682 14.075-5.803 28.084c0 0 15.897 5.149 35.966-13.489l-13.752 17.307s21.654 18.281 29.393 57.748c0 0-1.565-47.137-2.653-60.659 0 0-.358-5.48 4.114-1.094 0 0 7.497 6.822 18.861 27.409 0 0-8.533-16.312-9.549-34.351 0 0 0-2.436 3.022-1.949 0 0 4.353-.122 6.529-3.776 0 0 2.296-.853-4.837-7.796l-2.156-1.706s32.441 9.867 46.441 21.805v-5.839l-4.794-.13s-3.185-7.918 7.817-28.261c0 0-7.334 10.357-14.95 14.742 0 0-3.969 4.549-6.99-7.227 0 0-5.672-13.238 10.647-14.943 0 0 7.771-.853 33.81 2.801 0 0-21.471-5.969-28.24-20.952 0 0-1.329-3.776 1.21-6.821 0 0 2.417-1.583 1.33-10.963 0 0-2.176-16.444-4.594-26.067 0 0-3.989 5.481-7.736 1.827 0 0-1.935-3.898.726-5.969 0 0 17.649-19.612 46.06-33.864 0 0-25.992 14.74-55.73 15.592 0 0-10.396.244-7.617-12.79 0 0 3.868-13.887 22.485-34.838 0 0-21.396 17.054-29.376 21.074 0 0-6.771-6.334-16.441-10.354 0 0 2.779 2.681 6.528 12.06 0 0 2.539 6.578-6.045.122 0 0-4.11-3.654-5.077-6.334 0 0-4.956-6.82 13.902-67.849 0 0-14.87 40.808-30.706 58.593 0 0-10.156 10.729-16.2-1.703 0 0-6.892-11.943-11.001-34.722 0 0 1.21 36.301-13.54 43.975 0 0-14.991 4.507-23.454 11.694 0 0-5.802 5.725-19.946-4.995 0 0 3.265 2.94 4.594 12.187 0 0 .726 3.522 2.661 5.836 0 0 4.714 4.103 5.319 5.036 0 0-24.542-6.874-52.831-22.942 0 0 18.618 13.521 29.74 31.062 0 0 3.869 5.482-.363 8.406 0 0-8.341 9.136-7.013 24.363 0 0 1.935 9.988-10.88 11.572 0 0-7.254 1.218-19.101 3.654 0 0 17.287.731 26.233 6.943 0 0 4.353 2.68 1.21 6.943 0 0-2.842 4.183-14.629 15.329 0 0 11.878-1.096 21.125.731 0 0 4.081.274 6.619 5.665l13.963-30.789 1.271 40.747 13.962-21.196-5.167-7.583 20.581-12.242-21.941 1.096s-3.506-19.886 4.474-35.234l20.914 7.796-14.387-16.304s15.837-17.247 37.477-17.247h10.638l-.483 21.466 12.937-17.346s15.837 8.929 20.914 18.917l-9.913 10.191 14.749-1.118s3.144 4.497 3.144 17.896c0 0 1.45 32.519-32.521 48.477l-11.122-18.762-1.33 20.829-18.498.229zM207.436 236.396s7.857.853 13.54 11.451c5.682 10.597 6.287-3.167 6.287-3.167s-12.814-4.995-14.991-14.861c-2.177-9.868-4.836 6.577-4.836 6.577z"></path><path stroke="#000" stroke-miterlimit="10" d="M239.109 311.065l-18.859-21.561s24.48-28.287 59.116-20.083l-1.813 26.661 15.051-22.292s15.051 6.212 26.295 23.388l-11.606 12.426 16.501-2.56s21.398 51.346-34.272 81.312l-14.144-24.484-1.334 29.053s-44.001 3.653-63.042-36.545l23.03-14.8-27.382 1.278s-5.44-16.81 4.896-42.391l27.563 10.598z"></path><ellipse cx="162.09" cy="202.279" rx="40.73" ry="41.043"></ellipse><ellipse fill="#FFF" stroke="#FFF" stroke-miterlimit="10" cx="161.814" cy="202.558" rx="14.825" ry="14.94"></ellipse><ellipse fill="#FFF" stroke="#FFF" stroke-miterlimit="10" cx="355.505" cy="146.259" rx="12.67" ry="12.769"></ellipse><ellipse fill="#FFF" stroke="#FFF" stroke-miterlimit="10" cx="266.537" cy="328.728" rx="10.745" ry="10.828"></ellipse></svg>